# xmcd
#
# Track frame offsets: 
#        150
#        16084
#        27463
#        38485
#        56115
#        74615
#        85982
#        101784
#        112845
#        129110
#        143112
#        165984
#        178538
#
# Disc length: 2550 seconds
#
# Revision: 0
# Processed by: cddbd v1.5.2PL0 Copyright (c) Steve Scherf et al.
# Submitted via: ExactAudioCopy v0.99pb4
#
DISCID=a209f40d
DTITLE=HillBilly Soul - The Country from 'C' to 'Y'
DYEAR=2001
DGENRE=Country
TTITLE0=Believe me baby (I lied)
TTITLE1=Put your heart into it
TTITLE2=Feelin' sigle and seein' double
TTITLE3=One solitary tear
TTITLE4=I know that he loves me
TTITLE5=C.O.U.N.T.R.Y.
TTITLE6=You're still the one
TTITLE7=Trouble is a woman
TTITLE8=You've got to talk to me
TTITLE9=Buckaroo
TTITLE10=Strawberry wine
TTITLE11=If this is love
TTITLE12=It wasn't God who made honky tonk angels
EXTD=
EXTT0=
EXTT1=
EXTT2=
EXTT3=
EXTT4=
EXTT5=
EXTT6=
EXTT7=
EXTT8=
EXTT9=
EXTT10=
EXTT11=
EXTT12=
PLAYORDER=
